<svg width="1200" height="312" viewBox="0 0 1200 312" fill="none" xmlns="http://www.w3.org/2000/svg">
<g clip-path="url(#clip0_1215_843)">
<path d="M780.67 139.114C780.67 134.377 776.829 130.536 772.091 130.536H769.397C764.66 130.536 760.819 134.377 760.819 139.114V206.76C760.819 211.498 764.66 215.339 769.397 215.339H772.091C776.829 215.339 780.67 211.498 780.67 206.76V139.114Z" fill="#4A4B4D"/>
<path d="M847.647 205.763C848.812 208.725 847.963 212.203 845.075 213.541C843.822 214.121 842.472 214.615 841.026 215.021C837.744 215.974 834.25 216.451 830.545 216.451C821.228 216.451 814.029 214.016 808.947 209.145C803.865 204.275 801.324 197.182 801.324 187.865V120.375C801.324 115.637 805.165 111.797 809.903 111.797H812.597C817.335 111.797 821.175 115.637 821.175 120.375V131.171H835.306C840.044 131.171 843.885 135.012 843.885 139.75V147.052H821.175V187.389C821.175 191.518 822.181 194.694 824.193 196.917C826.31 199.035 829.222 200.093 832.927 200.093C833.622 200.093 834.298 200.065 834.957 200.008C839.846 199.586 845.851 201.196 847.647 205.763V205.763Z" fill="#4A4B4D"/>
<path d="M900.312 215.021C901.758 214.615 903.108 214.121 904.361 213.541C907.249 212.203 908.098 208.725 906.933 205.763V205.763C905.137 201.196 899.132 199.586 894.243 200.008C893.584 200.065 892.908 200.093 892.213 200.093C888.508 200.093 885.596 199.035 883.479 196.917C881.467 194.694 880.461 191.518 880.461 187.389V147.052H895.23C899.616 147.052 903.171 143.497 903.171 139.112V139.112C903.171 134.726 899.616 131.171 895.23 131.171H880.461V120.375C880.461 115.637 876.621 111.797 871.883 111.797H869.189C864.451 111.797 860.61 115.637 860.61 120.375V187.865C860.61 197.182 863.151 204.275 868.233 209.145C873.315 214.016 880.514 216.451 889.831 216.451C893.536 216.451 897.03 215.974 900.312 215.021Z" fill="#4A4B4D"/>
<path fill-rule="evenodd" clip-rule="evenodd" d="M958.077 199.617C963.97 199.617 969.235 198.36 973.872 195.846C978.178 193.511 983.826 193.581 987.014 197.301V197.301C989.66 200.388 989.783 205.03 986.613 207.577C983.886 209.769 980.779 211.562 977.293 212.957C971.47 215.286 964.906 216.45 957.601 216.45C948.284 216.45 940.079 214.598 932.985 210.892C925.892 207.187 920.387 202.052 916.47 195.488C912.658 188.818 910.752 181.301 910.752 172.937C910.752 164.679 912.605 157.268 916.311 150.704C920.122 144.034 925.31 138.847 931.874 135.141C938.544 131.436 946.061 129.583 954.424 129.583C962.365 129.583 969.564 131.33 976.022 134.823C982.586 138.211 987.774 143.134 991.585 149.592C995.397 155.945 997.302 163.409 997.302 171.984L932.35 184.689C934.362 189.559 937.591 193.264 942.037 195.805C946.484 198.346 951.831 199.617 958.077 199.617ZM954.424 145.463C947.119 145.463 941.19 147.846 936.638 152.61C932.191 157.374 929.968 163.779 929.968 171.825V171.984L977.928 162.773C976.551 157.586 973.746 153.404 969.511 150.228C965.382 147.052 960.353 145.463 954.424 145.463Z" fill="#4A4B4D"/>
<path d="M1060.68 138.154C1060.68 133.42 1056.82 129.478 1052.14 130.178C1042.23 131.66 1035.02 135.908 1030.51 142.923V139.114C1030.51 134.376 1026.67 130.536 1021.93 130.536H1020.19C1015.45 130.536 1011.61 134.376 1011.61 139.114V206.76C1011.61 211.498 1015.45 215.339 1020.19 215.339H1022.88C1027.62 215.339 1031.46 211.498 1031.46 206.76V174.208C1031.46 165.738 1033.63 159.28 1037.97 154.833C1042.31 150.281 1048.35 148.004 1056.08 148.004V148.004C1058.49 148.004 1060.68 146.254 1060.68 143.844V138.154Z" fill="#4A4B4D"/>
<path d="M1079.1 213.751C1085.67 215.55 1092.39 216.45 1099.27 216.45C1111.13 216.45 1120.5 214.068 1127.38 209.304C1134.26 204.54 1137.7 198.187 1137.7 190.247C1137.7 184.212 1136.11 179.554 1132.94 176.272C1129.87 172.99 1126.16 170.661 1121.82 169.285C1117.48 167.908 1111.92 166.691 1105.15 165.632C1098.37 164.467 1093.34 163.25 1090.06 161.979C1086.88 160.603 1085.3 158.327 1085.3 155.151C1085.3 152.292 1086.78 150.016 1089.74 148.322C1092.81 146.522 1097.26 145.622 1103.08 145.622C1108.82 145.622 1114.19 146.483 1119.19 148.203C1123.82 149.793 1129.25 148.281 1131.45 143.917V143.917C1133.45 139.955 1132.04 135.08 1127.85 133.625C1125.68 132.872 1123.3 132.212 1120.71 131.647C1114.89 130.271 1109.06 129.583 1103.24 129.583C1091.81 129.583 1082.7 132.018 1075.93 136.888C1069.26 141.652 1065.92 148.057 1065.92 156.104C1065.92 162.244 1067.51 167.061 1070.68 170.555C1073.97 173.943 1077.78 176.325 1082.12 177.701C1086.57 179.078 1092.28 180.295 1099.27 181.354C1105.94 182.413 1110.76 183.524 1113.72 184.689C1116.79 185.853 1118.33 187.918 1118.33 190.882C1118.33 197.129 1112.4 200.252 1100.54 200.252C1095.35 200.252 1090.06 199.511 1084.66 198.029C1082.85 197.485 1081.12 196.885 1079.48 196.229C1074.76 194.34 1068.98 195.834 1066.69 200.375V200.375C1064.79 204.134 1065.93 208.769 1069.78 210.486C1072.51 211.708 1075.62 212.796 1079.1 213.751Z" fill="#4A4B4D"/>
<path d="M710.056 216.45C703.175 216.45 696.452 215.55 689.888 213.751C686.408 212.796 683.3 211.708 680.564 210.486C676.718 208.769 675.575 204.134 677.474 200.375V200.375C679.768 195.834 685.544 194.34 690.268 196.229C691.907 196.885 693.633 197.485 695.446 198.029C700.846 199.511 706.139 200.252 711.327 200.252C723.184 200.252 729.113 197.129 729.113 190.882C729.113 187.918 727.578 185.853 724.508 184.689C721.543 183.524 716.726 182.413 710.056 181.354C703.069 180.295 697.352 179.078 692.905 177.701C688.564 176.325 684.753 173.943 681.471 170.555C678.295 167.061 676.707 162.244 676.707 156.104C676.707 148.057 680.042 141.652 686.712 136.888C693.487 132.018 702.592 129.583 714.027 129.583C719.849 129.583 725.672 130.271 731.495 131.647C734.085 132.212 736.465 132.872 738.636 133.625C742.829 135.08 744.238 139.955 742.236 143.917V143.917C740.031 148.281 734.604 149.793 729.98 148.203C724.975 146.483 719.604 145.622 713.868 145.622C708.045 145.622 703.598 146.522 700.528 148.322C697.564 150.016 696.081 152.292 696.081 155.151C696.081 158.327 697.669 160.603 700.846 161.979C704.128 163.25 709.156 164.467 715.932 165.632C722.708 166.691 728.266 167.908 732.607 169.285C736.948 170.661 740.653 172.99 743.723 176.272C746.9 179.554 748.488 184.212 748.488 190.247C748.488 198.187 745.047 204.54 738.165 209.304C731.284 214.068 721.914 216.45 710.056 216.45Z" fill="#4A4B4D"/>
<path d="M663.634 215.021C665.08 214.615 666.429 214.121 667.682 213.541C670.57 212.203 671.419 208.725 670.254 205.763V205.763C668.458 201.196 662.453 199.586 657.564 200.008C656.905 200.065 656.229 200.093 655.534 200.093C651.829 200.093 648.917 199.035 646.8 196.917C644.788 194.694 643.783 191.518 643.783 187.389V147.052H658.552C662.937 147.052 666.492 143.497 666.492 139.112V139.112C666.492 134.726 662.937 131.171 658.552 131.171H643.783V120.375C643.783 115.637 639.942 111.797 635.204 111.797H632.51C627.772 111.797 623.932 115.637 623.932 120.375V187.865C623.932 197.182 626.473 204.275 631.554 209.145C636.636 214.016 643.836 216.451 653.152 216.451C656.858 216.451 660.352 215.974 663.634 215.021Z" fill="#4A4B4D"/>
<path fill-rule="evenodd" clip-rule="evenodd" d="M571.034 199.617C576.928 199.617 582.193 198.36 586.829 195.846C591.135 193.511 596.783 193.582 599.971 197.301V197.301C602.618 200.389 602.741 205.03 599.57 207.577C596.843 209.769 593.736 211.562 590.25 212.957C584.427 215.286 577.863 216.45 570.558 216.45C561.241 216.45 553.036 214.598 545.943 210.892C538.849 207.187 533.344 202.052 529.427 195.488C525.615 188.818 523.71 181.301 523.71 172.937C523.71 164.679 525.563 157.268 529.268 150.704C533.079 144.034 538.267 138.847 544.831 135.141C551.501 131.436 559.018 129.583 567.382 129.583C575.322 129.583 582.521 131.33 588.979 134.823C595.543 138.211 600.731 143.134 604.543 149.592C608.354 155.945 610.26 163.409 610.26 171.984L545.308 184.689C547.319 189.559 550.548 193.264 554.995 195.805C559.441 198.346 564.788 199.617 571.034 199.617ZM567.382 145.463C560.077 145.463 554.148 147.846 549.595 152.61C545.149 157.374 542.925 163.779 542.925 171.825V171.984L590.885 162.773C589.509 157.586 586.703 153.404 582.468 150.228C578.339 147.052 573.311 145.463 567.382 145.463Z" fill="#4A4B4D"/>
<path fill-rule="evenodd" clip-rule="evenodd" d="M494.828 108.938C487.735 105.762 479.371 104.174 469.736 104.174H432.579C427.841 104.174 424 108.015 424 112.752V206.76C424 211.498 427.841 215.339 432.579 215.339H436.066C440.804 215.339 444.645 211.498 444.645 206.76V183.26H469.736C479.371 183.26 487.735 181.672 494.828 178.496C502.027 175.319 507.533 170.767 511.344 164.838C515.155 158.803 517.061 151.763 517.061 143.717C517.061 135.565 515.155 128.524 511.344 122.595C507.533 116.667 502.027 112.114 494.828 108.938ZM489.27 160.074C484.611 163.885 477.783 165.791 468.784 165.791H444.645V121.643H468.784C477.783 121.643 484.611 123.548 489.27 127.36C493.928 131.171 496.257 136.623 496.257 143.717C496.257 150.81 493.928 156.263 489.27 160.074Z" fill="#4A4B4D"/>
<path d="M791.992 100.678C789.413 111.337 771.549 116.149 770.791 116.343C770.591 116.396 770.381 116.398 770.179 116.349C769.978 116.301 769.792 116.203 769.638 116.064C769.053 115.546 755.362 103.101 757.941 92.4414C758.549 89.9389 760.123 87.7795 762.318 86.4369C764.513 85.0943 767.15 84.6781 769.649 85.2797C772.788 86.039 775.21 88.056 776.37 90.7562C778.636 88.8848 781.712 88.1973 784.851 88.9566C787.349 89.5638 789.503 91.1389 790.842 93.3363C792.181 95.5337 792.594 98.1739 791.992 100.678Z" fill="#4A4B4D"/>
<path d="M30.0362 297.114C56.1161 294.413 106.352 290.261 155.3 291.202C207.743 292.21 246.653 294.616 289.25 303.326" stroke="#4A4B4D" stroke-width="5.25433" stroke-linecap="round"/>
<path d="M317.303 153.85C289.151 247.768 126.988 282.011 120.111 283.371C118.295 283.743 116.414 283.659 114.638 283.126C112.862 282.594 111.245 281.63 109.932 280.32C104.938 275.401 -11.6512 157.604 16.5005 63.6855C23.1361 41.6387 38.2537 23.1265 58.5366 12.2104C78.8196 1.29426 102.611 -1.13438 124.693 5.4573C152.423 13.7694 173.131 32.9611 182.228 57.6362C203.399 42.034 231.249 37.3974 258.979 45.7094C281.045 52.3508 299.579 67.4663 310.513 87.7396C321.446 108.013 323.888 131.789 317.303 153.85Z" fill="#50C6D8"/>
<path d="M63.0176 202.351C57.7246 208.002 54.0838 214.888 51.2908 222.133C48.4979 229.378 46.9817 238.956 49.494 249.478C52.0062 260.001 60.9157 271.705 60.9157 271.705C60.9157 271.705 51.5805 270.259 46.8202 277.076C42.06 283.893 44.6347 289.398 48.3816 292.744C52.1285 296.09 62.8451 295.039 62.8451 295.039L62.8523 295.069C63.4458 297.513 63.9486 299.584 66.215 301.028C70.7684 303.929 82.7073 302.722 87.8582 301.419C93.4836 299.996 97.3378 297.258 100.614 292.446L124.03 291.162C124.455 291.156 125.201 291.039 125.589 291.141C126.608 291.407 131.432 295.932 134.295 297.048C139.417 299.047 153.363 299.299 158.604 297.361C159.826 296.909 160.858 296.164 161.747 295.213C163.429 293.412 164.046 291.227 164.603 288.743C169.526 288.129 175.73 288.301 179.191 284.103C180.836 282.107 181.473 279.555 181.139 277.002C180.695 273.618 178.658 270.472 175.895 268.52C171.635 265.51 166.405 265.547 161.43 265.582L161.248 265.583C168.616 254.444 172.381 241.062 169.759 227.727C167.578 216.637 161.323 206.629 152.324 199.873C152.176 195.876 152.118 191.839 151.453 187.888C149.972 179.083 145.592 169.703 141.613 161.743C137.649 153.814 135.531 153.837 134.806 144.063C140.87 139.138 144.957 130.853 147.111 123.48C149.193 125.524 153.698 130.925 156.688 131.13C157.582 131.192 158.369 130.62 158.945 129.992C164.165 124.296 167.619 102.264 167.084 94.6796C166.611 87.9667 159.042 81.0697 154.508 76.983C150.071 73.1939 144.871 69.3565 138.736 69.8734C136.55 70.058 134.198 70.6428 132.171 71.4745C121.125 63.3305 109.746 58.9365 95.892 61.0366C85.8291 62.5614 76.3922 67.8464 69.4542 75.2836C64.4771 74.2472 60.4085 73.8718 55.9037 76.8084C49.2569 81.142 41.5072 90.961 39.9612 98.9377C39.4214 101.725 39.936 105.068 40.5766 107.817C41.8113 111.807 48.65 131.479 50.7819 134.567C51.3827 135.437 52.0291 135.902 53.0841 136.021C54.6131 136.193 55.8694 134.92 57.1272 134.365C57.8774 133.727 58.5842 133.022 59.2923 132.338C64.3972 139.01 70.0815 144.749 77.0757 149.692C66.984 170.006 63.075 179.484 63.0176 202.351Z" fill="#4A4B4D"/>
<path fill-rule="evenodd" clip-rule="evenodd" d="M59.5729 269.84C60.3962 271.023 60.9155 271.705 60.9155 271.705C60.9155 271.705 60.0252 271.567 58.6542 271.578C55.5859 271.6 50.1102 272.365 46.8201 277.076C42.0598 283.894 44.6346 289.398 48.3815 292.745C52.1284 296.091 62.8449 295.04 62.8449 295.04L62.8522 295.07C63.4457 297.514 63.9484 299.585 66.2148 301.029C70.7683 303.93 82.7072 302.722 87.858 301.42C93.4835 299.996 97.3377 297.259 100.614 292.447L124.03 291.163C124.162 291.161 124.326 291.148 124.5 291.135C124.885 291.105 125.322 291.071 125.589 291.141C126.004 291.25 127.052 292.066 128.342 293.071C130.216 294.53 132.599 296.388 134.295 297.049C139.417 299.048 153.363 299.3 158.604 297.362C159.826 296.909 160.858 296.165 161.747 295.213L163.026 296.409C161.984 297.525 160.731 298.442 159.211 299.004L159.211 299.004C156.265 300.094 151.187 300.504 146.379 300.433C141.567 300.362 136.531 299.801 133.659 298.681M164.603 288.744C164.045 291.227 163.429 293.413 161.747 295.213L163.026 296.409C164.73 294.585 165.492 292.457 166.024 290.349C166.381 290.313 166.75 290.278 167.129 290.242C168.943 290.069 170.967 289.877 172.813 289.48C175.597 288.882 178.456 287.749 180.542 285.218L180.542 285.217C182.524 282.813 183.267 279.764 182.875 276.775C182.363 272.865 180.033 269.3 176.905 267.09C173.061 264.374 168.552 263.896 164.411 263.831C170.846 252.955 173.994 240.188 171.478 227.39C169.269 216.155 163.033 205.991 154.045 198.985C154.036 198.747 154.028 198.509 154.02 198.27C153.903 194.793 153.78 191.161 153.18 187.598C151.65 178.503 147.152 168.907 143.179 160.96C142.158 158.918 141.256 157.387 140.477 156.102C140.35 155.894 140.228 155.693 140.11 155.5C139.493 154.487 138.994 153.667 138.558 152.805C137.643 150.994 136.993 148.959 136.625 144.821C141.904 140.211 145.615 133.306 147.883 126.808C148.631 127.589 149.482 128.458 150.368 129.28C151.283 130.127 152.275 130.961 153.27 131.606C154.231 132.229 155.376 132.796 156.567 132.878C158.286 132.996 159.561 131.912 160.236 131.176L160.236 131.176C161.793 129.478 163.081 126.749 164.146 123.719C165.231 120.635 166.154 117.026 166.889 113.391C168.35 106.168 169.115 98.5824 168.831 94.557C168.555 90.6421 166.252 86.8855 163.674 83.7372C161.06 80.5468 157.94 77.7192 155.68 75.6826L155.663 75.6669L155.645 75.6518C151.244 71.8928 145.529 67.544 138.588 68.1287L138.588 68.1287C136.544 68.3013 134.387 68.7924 132.432 69.4981C121.374 61.5321 109.749 57.1651 95.6294 59.3055C85.4709 60.8448 75.968 66.0497 68.8521 73.3763C64.1323 72.4622 59.7352 72.2204 54.9471 75.3418L54.947 75.3418C51.4104 77.6476 47.6667 81.346 44.6127 85.4642C41.5677 89.5703 39.0833 94.2621 38.2417 98.605L38.2416 98.6053C37.6274 101.777 38.2208 105.426 38.8707 108.215L38.8849 108.275L38.9033 108.335C39.5336 110.372 41.5638 116.32 43.6985 122.134C44.7672 125.045 45.869 127.941 46.841 130.311C47.7816 132.604 48.6788 134.604 49.3404 135.562L49.3407 135.563C49.7228 136.116 50.1877 136.641 50.807 137.044C51.4391 137.455 52.1343 137.677 52.8879 137.762C54.2015 137.91 55.2946 137.419 56.0546 136.999C56.3497 136.836 56.6491 136.651 56.8997 136.496C56.9682 136.453 57.0331 136.413 57.0933 136.377C57.4044 136.186 57.6341 136.056 57.834 135.968L58.067 135.865L58.2611 135.7C58.5485 135.456 58.8306 135.202 59.1054 134.946C63.691 140.707 68.7783 145.782 74.8469 150.245C70.1516 159.734 66.7947 166.992 64.6011 174.578C62.3423 182.39 61.3353 190.479 61.2689 201.664C56.0225 207.438 52.4136 214.351 49.6565 221.504C46.7568 229.026 45.1833 238.966 47.7903 249.885C49.109 255.409 52.0739 261.148 54.6444 265.438C55.6778 267.163 56.6599 268.674 57.4676 269.867C56.8184 269.908 56.1093 269.982 55.3635 270.107C52.1716 270.642 48.1313 272.139 45.3841 276.074C42.7758 279.809 42.0699 283.365 42.6916 286.548C43.3031 289.678 45.1513 292.208 47.2149 294.051C48.4651 295.167 50.1631 295.817 51.8087 296.217C53.4864 296.624 55.2967 296.815 56.9319 296.896C58.5747 296.977 60.0881 296.949 61.188 296.901C61.2969 296.897 61.4019 296.892 61.5027 296.887C62.048 298.892 62.9036 300.996 65.2737 302.506C66.7139 303.423 68.5951 303.94 70.5349 304.229C72.5053 304.523 74.6922 304.604 76.855 304.552C81.1697 304.447 85.573 303.804 88.2875 303.118C94.0512 301.659 98.1476 298.871 101.559 294.149L124.095 292.913M63.0175 202.351C57.7244 208.002 54.0836 214.888 51.2907 222.134C48.4977 229.379 46.9816 238.956 49.4939 249.479C51.3996 257.461 56.9863 266.123 59.5729 269.84M77.0756 149.693C70.5718 145.096 65.2006 139.811 60.3747 133.728C60.0109 133.269 59.6501 132.806 59.2922 132.338C59.1718 132.455 59.0514 132.572 58.9308 132.689C58.6303 132.981 58.3287 133.274 58.0225 133.561C57.7292 133.836 57.4317 134.106 57.127 134.365C56.7393 134.536 56.3516 134.776 55.9561 135.02C55.0687 135.568 54.1415 136.141 53.0839 136.021C52.0289 135.903 51.3825 135.437 50.7818 134.567C48.6499 131.479 41.8111 111.808 40.5765 107.817C39.9359 105.069 39.4213 101.726 39.9611 98.9383C41.5071 90.9615 49.2568 81.1426 55.9036 76.809C60.4083 73.8723 64.4769 74.2478 69.454 75.2841C76.392 67.8469 85.829 62.562 95.8919 61.0372C109.746 58.937 121.125 63.3311 132.171 71.4751C134.198 70.6433 136.55 70.0586 138.735 69.8739C144.871 69.3571 150.071 73.1944 154.508 76.9835C159.042 81.0703 166.611 87.9673 167.084 94.6801C167.619 102.264 164.165 124.297 158.945 129.992C158.369 130.621 157.582 131.192 156.688 131.13C154.256 130.964 150.823 127.361 148.505 124.921C148.494 124.909 148.482 124.897 148.471 124.885C147.953 124.34 147.491 123.854 147.11 123.48C146.927 124.107 146.731 124.74 146.52 125.377C144.248 132.237 140.355 139.557 134.806 144.064C135.321 151.008 136.54 153.007 138.623 156.426C139.472 157.819 140.465 159.448 141.613 161.743C145.592 169.703 149.972 179.084 151.453 187.889C152.032 191.328 152.151 194.833 152.269 198.319C152.287 198.838 152.305 199.356 152.324 199.873C161.323 206.63 167.578 216.637 169.759 227.727C172.244 240.368 168.991 253.05 162.37 263.824C162.063 264.324 161.749 264.819 161.428 265.31C161.368 265.401 161.308 265.493 161.248 265.584L161.43 265.582C162.063 265.578 162.701 265.573 163.341 265.575C167.721 265.587 172.178 265.894 175.895 268.521C178.658 270.473 180.695 273.618 181.139 277.003C181.473 279.556 180.836 282.108 179.191 284.104C176.297 287.614 171.485 288.069 167.108 288.483C166.25 288.564 165.41 288.643 164.603 288.744M77.0756 149.693C66.9838 170.006 63.0749 179.485 63.0175 202.351Z" fill="#4A4B4D"/>
<path d="M152.498 205.027C159.101 209.569 164.184 219.953 165.777 227.683C168.012 238.523 167.609 249.732 161.835 259.102C159.786 262.427 165.287 261.045 163.211 264.356L163.644 266.108C169.675 265.771 167.69 267.707 173.156 271.01C175.312 272.313 176.422 274.154 177.074 276.563C177.187 278.175 176.995 279.644 175.896 280.896C173.394 283.745 168.023 283.386 164.551 283.522C163.855 281.769 163.146 280.127 161.835 278.737C157.959 274.627 152.114 274.366 146.903 274.195C147.234 265.532 147.392 256.874 147.621 248.208C147.744 243.52 147.732 238.758 148.144 234.088C148.498 230.076 149.44 226.055 150.12 222.086C151.09 216.421 151.873 210.742 152.498 205.027Z" fill="#FEFEFE"/>
<path d="M62.7497 208.068C63.514 208.95 64.5279 216.923 64.8742 218.612C66.0202 224.203 67.8579 229.644 68.9691 235.233C71.8144 249.547 73.764 264.044 76.7128 278.349C73.8324 278.662 71.255 279.228 68.7306 280.711C64.8593 282.984 62.9576 286.279 61.8227 290.46C60.5653 290.509 59.3059 290.56 58.0478 290.567C54.245 290.588 51.2163 289.971 48.4269 287.231C48.0544 286.471 47.7707 285.655 47.7112 284.807C47.5684 282.776 47.98 280.951 49.3599 279.402C53.7372 274.49 61.9385 275.118 67.9047 274.877C59.8833 266.91 54.5624 257.589 52.6145 246.423C50.7877 235.949 52.5692 224.815 57.7675 215.492C59.2148 212.897 61.0268 210.487 62.7497 208.068Z" fill="#FEFEFE"/>
<path d="M99.4478 64.6993C104.063 64.3679 108.691 64.8251 113.153 66.0405C127.301 69.8944 136.433 77.7493 137.733 92.7901C138.095 96.9789 137.417 101.134 138.164 105.314C139.085 110.473 141.209 115.135 143.809 119.647C142.121 126.016 139.973 131.749 135.649 136.854C127.933 145.962 116.704 150.831 104.962 151.801C101.539 152.039 98.1099 151.958 94.7149 151.436C80.9047 149.317 69.9095 139.26 61.9611 128.342C62.5897 127.593 63.2206 126.847 63.8182 126.073C70.3266 117.647 68.4543 108.407 67.2888 98.881C66.4424 91.9592 67.487 84.3939 71.907 78.7882C78.4848 70.4463 89.1497 65.9383 99.4478 64.6993Z" fill="#FEFEFE"/>
<path d="M83.5541 93.04C84.3931 93.078 85.1776 93.1329 85.9346 93.5543C87.2784 94.3031 88.1533 95.6848 88.5339 97.2006C88.9281 98.7715 88.8058 100.486 88.0054 101.893C87.2477 103.224 86.241 103.798 84.8443 104.149C84.0891 104.188 83.3537 104.12 82.6455 103.818C81.4566 103.311 80.5669 102.31 80.0772 101.078C79.4467 99.4913 79.4336 97.587 80.1067 96.0192C80.8283 94.3385 81.9799 93.6389 83.5541 93.04Z" fill="#4A4B4D"/>
<path d="M119.239 91.0217C119.988 91.0721 120.657 91.2134 121.335 91.6071C122.667 92.3794 123.584 93.7927 123.992 95.4079C124.419 97.0969 124.309 98.887 123.551 100.414C122.765 101.996 121.646 102.751 120.138 103.169C119.227 103.185 118.375 102.983 117.586 102.434C116.378 101.596 115.605 100.157 115.275 98.6209C114.889 96.823 115.094 94.8599 115.992 93.3165C116.808 91.9137 117.832 91.3531 119.239 91.0217Z" fill="#4A4B4D"/>
<path d="M106.112 114.251C108.195 114.115 110.308 113.873 112.225 114.884C113.353 115.479 114.161 116.441 114.532 117.659C115.233 119.963 114.486 122.637 113.343 124.675C111.483 127.991 108.85 129.343 105.368 130.398C106.078 132.185 106.856 133.963 108.198 135.384C109.67 136.943 111.937 137.906 114.081 137.951C120.098 138.079 121.064 132.896 124.589 129.913C125.155 129.434 125.473 129.404 126.185 129.466C126.785 129.982 126.884 130.109 127.161 130.847C126.959 132.469 125.762 134.077 124.808 135.387C122.592 138.429 119.424 140.78 115.617 141.302C112.008 141.797 109.079 140.569 106.238 138.475L104.586 136.903C102.932 139.276 101.279 141.279 98.5036 142.394C95.512 143.597 92.074 143.533 89.1221 142.248C86.8855 141.274 84.6692 139.356 83.9068 136.963C83.6867 136.271 83.6878 135.95 84.031 135.325C86.3324 134.331 89.0182 138.98 92.4175 139.731C94.8044 140.258 97.0927 139.5 99.054 138.134C101.902 136.151 102.563 133.852 103.13 130.599C101.215 129.969 99.6077 129.395 98.0129 128.124C95.5585 126.169 93.5239 123.181 93.282 119.982C93.1866 118.722 93.524 117.567 94.4198 116.653C97.0219 113.999 102.642 114.418 106.112 114.251Z" fill="#4A4B4D"/>
<path d="M136.984 163.889C134.681 159.511 131.646 154.466 130.367 149.637C107.598 162.335 87.0188 156.643 80.4509 153.14C69.0704 174.22 64.8696 190.561 69.4906 214.602C70.7642 221.227 72.6091 227.687 74.0612 234.264C76.424 244.968 77.8236 256.037 79.7508 266.841C80.1922 269.316 82.6109 279.91 81.6623 281.461C81.2901 282.068 80.5201 282.263 79.8894 282.447C75.2426 283.803 70.3237 284.35 67.7227 289.144C66.6363 291.146 66.5694 293.65 67.2923 295.79C67.621 296.763 68.3157 297.344 69.2251 297.767C73.6216 299.811 84.9801 298.322 89.4473 296.543C92.1421 295.469 95.1645 293.518 96.3735 290.77C97.355 288.538 98.1682 249.447 98.3505 240.029C98.3737 238.83 99.2106 237.813 100.38 237.547C102.041 237.169 103.612 238.456 103.566 240.159C103.425 245.336 103.159 255.274 103.026 261.062C102.819 270.048 102.821 279.127 102.3 288.096C110.174 287.61 115.195 287.7 123.077 287.37L118.21 257.512L115.524 239.954C115.271 238.295 116.554 236.801 118.232 236.801C119.585 236.801 120.736 237.786 120.941 239.124C121.93 245.586 124.761 263.955 126.508 274.046C127.212 278.118 127.495 282.721 128.704 286.641C129.289 288.542 130.077 289.882 131.677 291.078C137.284 295.272 147.012 295.245 153.56 294.161C155.572 293.828 157.661 293.113 158.901 291.383C159.956 289.914 159.899 287.68 159.572 285.98C159.205 284.077 158.282 282.571 156.665 281.489C152.027 278.383 145.675 280.181 142.81 278.626C142.147 278.266 141.915 277.843 141.725 277.127C140.913 274.074 141.671 266.61 141.778 263.013L142.298 245.191C142.405 241.24 142.367 237.207 142.799 233.278C144.35 219.186 148.826 205.342 147.041 190.977C145.993 182.55 140.971 171.464 136.984 163.889Z" fill="white"/>
<path d="M171.329 275.323C168.9 275.681 168.171 276.684 165.013 279.391C162.027 281.951 160.503 291.119 163.66 291.571C166.818 292.022 174.617 291.867 183.508 292.473C184.811 295.604 186.909 298.01 190.04 299.31C195.364 301.521 203.282 302.291 208.672 299.928C211.248 298.799 213.014 297.035 214.674 294.829C216.06 298.211 217.882 300.337 221.351 301.776C226.488 303.906 234.819 304.629 240.055 302.454C242.546 301.42 244.508 299.817 246.139 297.687C250.942 298.256 261.061 299.567 265.523 299.015C266.837 298.853 268.084 298.471 269.136 297.643C270.391 296.654 271.109 295.194 271.245 293.612C271.409 291.694 270.85 289.653 270.164 287.878C284.482 287.643 299.247 283.696 309.516 273.163C316.421 266.079 320.181 256.923 320.045 247.021C319.923 238.091 315.762 227.261 309.32 220.957C307.383 219.06 305.149 217.611 302.357 217.637C299.939 217.659 297.828 218.591 296.153 220.335C294.568 221.984 293.602 224.15 293.691 226.458C293.849 230.547 297.783 233.933 299.711 237.352C303.917 244.811 303.122 254.01 297.491 260.456C291.332 267.506 281.664 269.93 272.669 270.474C272.07 270.511 271.477 270.536 270.877 270.536C275.507 260.728 277.494 251.967 273.692 241.405C270.332 232.073 263.365 224.19 254.41 219.897C254.343 219.865 254.276 219.835 254.209 219.805C255.891 202.276 252.754 183.152 243.787 167.787C243.093 166.678 242.42 165.543 241.697 164.453C253.396 160.977 262.98 153.382 268.796 142.595C274.993 131.103 275.197 120.331 271.558 108.041C273.337 102.09 283.924 76.8984 281.555 73.1182C281.193 72.541 280.573 72.2512 279.918 72.1508C273.959 71.2389 253.531 82.1297 246.901 84.7798C234.795 80.7522 224.695 79.737 212.063 82.0477C206.947 79.0797 186.857 64.0225 181.549 65.4063C180.904 65.5748 180.372 65.8402 180.057 66.456C178.894 68.7265 183.415 93.2514 184.31 97.8879C178.926 110.212 177.154 126.07 182.168 138.833C186.286 149.316 195.049 156.17 204.584 161.491C192.015 175.043 184.454 199.98 184.411 218.493C175.756 221.16 170.238 225.312 165.916 233.379C161.581 241.469 159.6 247.481 161.405 256.836C162.68 263.447 166.965 270.668 171.329 275.323Z" fill="#4A4B4D"/>
<path fill-rule="evenodd" clip-rule="evenodd" d="M165.916 233.378L164.372 232.551C166.625 228.347 169.229 225.092 172.45 222.538C175.37 220.223 178.733 218.534 182.674 217.211C182.857 208.033 184.779 197.502 188.141 187.569C191.39 177.97 196.024 168.812 201.846 161.941C192.893 156.685 184.595 149.8 180.538 139.472C175.379 126.342 177.14 110.244 182.488 97.6876C181.96 94.9142 180.709 88.1081 179.682 81.555C179.132 78.0477 178.642 74.5878 178.363 71.8497C178.223 70.4846 178.133 69.2651 178.118 68.2949C178.11 67.8115 178.12 67.3556 178.16 66.9571C178.195 66.6127 178.267 66.1067 178.498 65.6568L178.498 65.6566C179.144 64.3942 180.254 63.9332 181.107 63.7107L181.107 63.7105C182.217 63.4213 183.47 63.6004 184.627 63.9092C185.831 64.231 187.175 64.7631 188.577 65.417C191.386 66.7264 194.627 68.617 197.808 70.6098C200.998 72.608 204.176 74.7401 206.861 76.5467C206.989 76.6326 207.115 76.7177 207.24 76.802C209.42 78.2693 211.207 79.4715 212.401 80.207C224.835 78.0287 234.957 79.0397 246.835 82.9129C248.421 82.2465 250.653 81.2036 253.275 79.9736L253.654 79.7957C256.5 78.4605 259.736 76.9423 262.956 75.5255C266.313 74.0478 269.695 72.662 272.633 71.701C274.102 71.2206 275.493 70.8357 276.735 70.601C277.951 70.3714 279.149 70.2604 280.183 70.4185L280.183 70.4186C281.142 70.5654 282.315 71.0321 283.039 72.1865L283.039 72.1871C283.654 73.1684 283.695 74.4783 283.627 75.5681C283.552 76.7676 283.303 78.1905 282.95 79.7246C282.242 82.8018 281.061 86.5604 279.769 90.3319C278.481 94.0932 277.066 97.918 275.865 101.162L275.846 101.212C274.756 104.157 273.866 106.565 273.387 108.056C276.973 120.486 276.71 131.608 270.338 143.425C264.662 153.952 255.526 161.554 244.387 165.425C244.469 165.558 244.55 165.689 244.63 165.82C244.848 166.175 245.062 166.523 245.271 166.856L245.286 166.879L245.299 166.903C254.277 182.287 257.516 201.268 256.06 218.76C265.011 223.344 271.941 231.371 275.34 240.811C279.006 250.996 277.53 259.603 273.649 268.65C282.142 267.99 290.713 265.551 296.172 259.303C301.297 253.436 302.039 245.047 298.185 238.211C297.761 237.459 297.21 236.681 296.574 235.828C296.406 235.602 296.231 235.369 296.05 235.13C295.573 234.498 295.067 233.826 294.6 233.157C293.318 231.317 292.04 229.098 291.941 226.524L291.941 226.524C291.83 223.671 293.028 221.058 294.89 219.12L294.89 219.12C296.884 217.045 299.441 215.911 302.341 215.885C305.809 215.853 308.469 217.672 310.546 219.704C317.356 226.369 321.668 237.659 321.797 246.996C321.939 257.376 317.99 266.977 310.77 274.384L309.516 273.162C316.421 266.078 320.181 256.922 320.045 247.02C319.923 238.09 315.762 227.26 309.32 220.956C307.383 219.06 305.149 217.61 302.357 217.636C299.939 217.658 297.828 218.59 296.153 220.334C294.568 221.983 293.602 224.149 293.691 226.457C293.798 229.236 295.649 231.689 297.429 234.05C298.269 235.163 299.093 236.255 299.711 237.351C303.917 244.81 303.122 254.009 297.491 260.455C291.372 267.46 281.788 269.898 272.843 270.463C272.785 270.466 272.727 270.47 272.669 270.473C272.07 270.51 271.477 270.535 270.877 270.535C271.156 269.942 271.427 269.354 271.686 268.768C275.726 259.662 277.264 251.328 273.692 241.404C270.332 232.072 263.365 224.189 254.41 219.896C254.343 219.864 254.276 219.834 254.209 219.804C255.891 202.275 252.754 183.151 243.787 167.786C243.562 167.427 243.34 167.065 243.117 166.703C242.97 166.464 242.823 166.225 242.675 165.986C242.355 165.47 242.031 164.956 241.697 164.452C242.28 164.279 242.858 164.096 243.43 163.902C254.342 160.211 263.27 152.843 268.796 142.594C274.993 131.102 275.197 120.33 271.558 108.04C272.005 106.546 273.007 103.839 274.219 100.563C277.837 90.7894 283.33 75.9484 281.555 73.1173C281.193 72.54 280.573 72.2502 279.918 72.1498C275.512 71.4755 263.193 77.255 254.393 81.3838C251.292 82.8386 248.629 84.0884 246.901 84.7788C234.795 80.7512 224.695 79.736 212.063 82.0468C210.853 81.3449 208.806 79.9671 206.315 78.2906C198.273 72.8771 185.602 64.3487 181.549 65.4053C180.904 65.5738 180.372 65.8393 180.057 66.455C178.894 68.7255 183.415 93.2504 184.31 97.8869C178.926 110.211 177.154 126.069 182.168 138.832C186.06 148.74 194.101 155.406 203.023 160.6C203.541 160.901 204.062 161.198 204.584 161.49C204.181 161.924 203.783 162.371 203.391 162.828C191.538 176.635 184.452 200.573 184.411 218.492C175.756 221.159 170.238 225.311 165.916 233.378ZM169.989 273.809C166.116 269.19 162.549 262.767 161.405 256.835C159.6 247.48 161.581 241.468 165.916 233.378L164.372 232.551C162.178 236.645 160.511 240.338 159.648 244.256C158.778 248.202 158.744 252.287 159.685 257.167C160.861 263.262 164.403 269.735 168.287 274.498C167.996 274.661 167.71 274.846 167.421 275.054C166.768 275.524 166.04 276.164 165.178 276.923C164.775 277.278 164.342 277.659 163.874 278.06C162.831 278.954 162.045 280.29 161.483 281.633C160.907 283.008 160.496 284.558 160.297 286.036C160.101 287.49 160.09 289.012 160.426 290.284C160.752 291.516 161.585 293.042 163.413 293.303C165.093 293.543 167.905 293.619 171.235 293.71L171.387 293.714C174.571 293.8 178.332 293.902 182.346 294.151C183.821 297.158 186.091 299.566 189.368 300.927C192.229 302.115 195.737 302.899 199.24 303.082C202.73 303.265 206.352 302.857 209.375 301.531C211.387 300.649 212.949 299.431 214.295 298.01C214.775 298.811 215.319 299.551 215.953 300.228C217.212 301.571 218.754 302.594 220.68 303.392L220.68 303.393C223.465 304.547 227.034 305.294 230.575 305.477C234.101 305.66 237.781 305.294 240.727 304.071C243.21 303.04 245.219 301.506 246.893 299.54C246.982 299.55 247.074 299.561 247.166 299.572C249.511 299.855 252.673 300.235 255.803 300.515C259.471 300.843 263.295 301.055 265.738 300.753L265.739 300.753C267.243 300.566 268.832 300.11 270.219 299.018L270.22 299.018C271.893 297.7 272.817 295.775 272.99 293.761L272.99 293.761C273.113 292.328 272.902 290.886 272.554 289.556C286.401 288.936 300.635 284.78 310.77 274.384L309.516 273.162C299.688 283.242 285.744 287.291 272.014 287.826C271.397 287.85 270.78 287.867 270.164 287.877C270.38 288.434 270.583 289.019 270.755 289.617C271.13 290.922 271.358 292.296 271.245 293.611C271.109 295.193 270.391 296.653 269.136 297.642C268.084 298.47 266.837 298.852 265.523 299.014C261.416 299.522 252.517 298.452 247.382 297.834C246.937 297.781 246.521 297.731 246.139 297.686C244.509 299.816 242.546 301.419 240.055 302.453C234.819 304.628 226.488 303.905 221.351 301.775C218.535 300.607 216.804 298.986 215.511 296.607C215.211 296.056 214.935 295.464 214.674 294.828C214.269 295.366 213.858 295.878 213.43 296.36C212.104 297.857 210.619 299.073 208.672 299.927C203.282 302.29 195.364 301.52 190.04 299.309C186.909 298.009 184.811 295.603 183.508 292.472C179.066 292.169 174.896 292.056 171.441 291.963C167.982 291.869 165.24 291.795 163.66 291.57C160.503 291.118 162.027 281.95 165.014 279.39C165.547 278.933 166.011 278.524 166.425 278.159C167.712 277.027 168.523 276.313 169.452 275.865C169.997 275.603 170.583 275.432 171.329 275.322C170.88 274.844 170.433 274.338 169.989 273.809Z" fill="#4A4B4D"/>
<path d="M302.884 226.701C307.7 231.809 315.144 245.091 309.452 258.227C306.281 265.545 299.872 273.46 284.056 277.055C274.423 279.244 264.227 279.408 255.157 280.12" stroke="white" stroke-width="10.5087" stroke-linecap="round"/>
<path d="M183.366 69.2529C190.749 72.0825 200.872 78.9386 207.391 83.5654C204.504 84.5398 201.717 85.5863 198.99 86.9531C194.732 89.1642 191.207 91.7111 187.625 94.8703L183.366 69.2529Z" fill="white"/>
<path d="M277.586 76.2097L277.974 76.2722L278.177 76.597C275.534 85.6341 272.298 94.5337 269.052 103.37C266.679 99.8336 264.209 96.6047 261.114 93.6672C258.032 90.9891 254.858 88.8539 251.143 87.1486C257.028 83.5889 270.985 77.7021 277.586 76.2097Z" fill="white"/>
<path d="M253.831 223.801C259.396 225.865 264.703 232.082 267.574 237.204C271.59 244.369 273.07 252.84 270.852 260.901C269.091 267.305 265.352 273.775 259.985 277.687C258.718 278.611 257.233 279.111 255.988 279.985C255.38 280.413 255.354 280.831 255.225 281.533C255.967 283.228 259.573 282.697 261.23 283.56C264.768 285.405 266.499 287.868 267.661 291.652C267.757 292.734 267.812 293.836 267.224 294.783C265.8 295.988 250.578 294.405 247.917 294.237C247.909 294.034 247.897 293.831 247.894 293.627C247.869 292.033 247.737 290.739 247.17 289.233C245.62 285.116 242.532 282.809 238.756 281.09C240.008 274.792 242.237 268.578 243.939 262.38C247.457 249.566 250.865 236.759 253.831 223.801Z" fill="white"/>
<path d="M183.63 222.577C178.443 224.007 173.118 229.359 170.08 233.904C165.83 240.263 163.744 248.078 165.017 255.846C166.029 262.017 168.812 268.43 173.286 272.591C174.343 273.573 175.633 274.178 176.674 275.112C177.183 275.569 177.168 275.964 177.222 276.634C176.403 278.158 173.21 277.331 171.644 277.99C168.299 279.399 166.523 281.553 165.14 284.999C164.957 286.006 164.809 287.035 165.254 287.977C166.426 289.237 180.249 289.139 182.656 289.223C182.682 289.033 182.711 288.844 182.732 288.653C182.896 287.159 183.13 285.957 183.775 284.595C185.536 280.872 188.517 278.988 192.064 277.719C191.501 271.694 190.053 265.659 189.076 259.686C187.058 247.339 185.139 235.009 183.63 222.577Z" fill="white"/>
<g filter="url(#filter0_d_1215_843)">
<path d="M223.667 86.6805C230.656 86.0638 240.983 88.3563 247.286 91.3103C240.573 94.5807 235.236 99.1198 232.771 106.241C230.689 112.258 231.138 118.995 234.096 124.688C236.501 129.316 240.978 132.646 245.975 134.254C254.383 136.96 261.795 135.018 269.389 131.302C268.876 132.893 268.345 134.478 267.74 136.038C263.56 146.804 255.53 154.424 244.844 159.054C240.039 160.828 235.167 161.86 230.029 162.162C218.184 162.859 205.586 159.139 196.635 151.362C188.201 144.033 184.547 136.947 183.93 125.956C183.504 118.366 184.28 106.075 189.764 100.231C198.082 91.3654 211.653 87.1133 223.667 86.6805Z" fill="white"/>
</g>
<path d="M205.594 109.499C206.601 109.545 207.519 109.627 208.422 110.223C209.649 111.032 210.588 112.517 210.946 114.292C211.289 115.993 211.075 117.87 210.348 119.406C209.424 121.357 208.054 122.153 206.456 122.673C205.41 122.645 204.503 122.587 203.573 121.94C202.352 121.092 201.474 119.653 201.138 117.856C200.814 116.125 201.077 114.218 201.828 112.679C202.721 110.848 204.055 109.939 205.594 109.499Z" fill="#4A4B4D"/>
<path d="M248.608 111.727C249.242 111.756 249.82 111.808 250.388 112.192C251.161 112.714 251.751 113.673 251.974 114.82C252.188 115.919 252.051 117.134 251.591 118.128C251.007 119.39 250.143 119.906 249.135 120.244C248.477 120.228 247.905 120.191 247.32 119.774C246.552 119.227 246 118.298 245.791 117.137C245.589 116.017 245.757 114.784 246.231 113.788C246.797 112.603 247.638 112.014 248.608 111.727Z" fill="white"/>
<path d="M224.745 131.759C224.852 131.756 224.958 131.75 225.066 131.752C226.787 131.786 229.406 132.188 230.562 133.619C230.988 134.147 231.169 134.804 231.037 135.473C230.639 137.494 228.479 138.379 226.861 139.259C226.88 140.674 227.036 141.899 227.782 143.134C228.531 144.374 229.886 145.204 231.285 145.51C237.096 146.786 237.58 142.112 240 140.876C240.301 140.723 240.548 140.866 240.853 140.938C241.136 141.483 241.115 141.302 241.152 141.881C241.231 143.11 240.471 144.262 239.619 145.068C237.548 147.024 234.924 148.207 232.04 148.072C229.333 147.945 227.597 146.828 225.85 144.855C225.572 144.398 225.344 144.054 224.937 143.704C223.78 143.819 222.087 146.051 220.098 146.526C217.547 147.135 214.997 146.771 212.794 145.333C211.246 144.324 209.815 142.889 209.48 141.003C209.338 140.201 209.318 139.294 209.813 138.617C211.497 138.492 212.494 142.769 215.34 144.027C216.659 144.61 218.234 144.668 219.577 144.135C221.872 143.224 222.654 141.493 223.505 139.361C222.202 138.016 220.402 136.91 219.904 134.983C219.744 134.369 219.852 133.771 220.25 133.263C221.172 132.089 223.365 131.94 224.745 131.759Z" fill="#4A4B4D"/>
<path d="M208.822 163.931C217.817 167.99 228.611 167.602 238.119 166.199C240.307 170.046 242.516 173.898 244.228 177.993C250.373 189.485 252.525 201.742 250.34 219.184C249.64 224.767 248.166 230.222 246.785 235.664C245.048 242.509 243.259 249.334 241.34 256.129C239.748 261.766 237.998 267.408 236.658 273.111C236.184 275.132 234.002 281.703 234.324 283.217C234.7 284.989 241.353 286.596 243.156 290.436C243.834 291.881 243.946 293.559 243.388 295.067C242.427 297.669 240.267 298.987 237.898 300.072C238.157 298.183 238.504 295.728 237.685 293.939L237.128 294.094C236.142 295.455 236.366 298.587 236.196 300.306C233.625 300.684 231.057 300.572 228.476 300.391C228.872 298.21 229.29 296.475 228.698 294.274L228.387 294.361C227.568 296.25 227.284 298.181 226.862 300.18C224.61 299.675 222.639 299.036 220.877 297.461C219.308 296.058 218.48 294.2 218.44 292.086C218.372 288.412 220.674 286.155 223.02 283.703C223.04 278.187 223.351 272.771 224.017 267.293C224.575 262.7 225.299 258.086 226.17 253.542C226.611 251.24 227.309 248.868 227.575 246.546C227.659 245.819 227.751 244.995 227.471 244.299C227.205 243.639 226.689 243.214 226.05 242.964C225.465 243.093 224.634 242.972 224.228 243.342C221.66 245.68 218.715 270.025 218.383 274.656C218.192 277.284 218.405 279.855 218.409 282.487C216.634 283.976 216.365 285.419 215.317 287.482C214.695 285.753 214.452 284.444 213.486 282.895C214.317 272.852 214.341 262.746 213.834 252.683C213.696 249.958 213.713 246.931 213.243 244.255C213.042 243.105 211.884 242.386 210.963 241.779C210.347 241.718 210.631 241.655 210.108 241.949C209.402 243.011 209.263 244.026 209.199 245.289C209.01 248.985 209.566 252.857 209.681 256.565C209.963 265.586 209.955 274.886 208.767 283.836C210.045 285.352 211.191 286.907 211.766 288.842C212.287 290.6 212.208 292.466 211.307 294.085C209.885 296.643 207.293 297.386 204.686 298.074C204.731 296.16 204.895 294.245 204.29 292.406L204.013 292.3C203.107 294.137 203.295 296.231 203.376 298.219C200.386 298.232 197.618 298.01 194.727 297.226C194.899 295.554 195.349 292.995 194.731 291.424L194.191 291.425C193.501 293.265 193.398 295.163 193.364 297.108C191.553 296.269 190.028 295.531 188.906 293.768C187.934 292.24 187.676 290.453 188.116 288.694C189.465 283.303 194.36 283.1 198.32 280.839C198.609 280.016 198.529 279.273 198.403 278.425C197.846 274.671 196.934 270.886 196.253 267.143C193.625 252.69 190.662 238.011 189.648 223.329C187 201.817 193.498 178.051 208.822 163.931Z" fill="white"/>
</g>
<defs>
<filter id="filter0_d_1215_843" x="180.329" y="86.5796" width="92.5631" height="82.6713" filterUnits="userSpaceOnUse" color-interpolation-filters="sRGB">
<feFlood flood-opacity="0" result="BackgroundImageFix"/>
<feColorMatrix in="SourceAlpha" type="matrix" values="0 0 0 0 0 0 0 0 0 0 0 0 0 0 0 0 0 0 127 0" result="hardAlpha"/>
<feOffset dy="3.50288"/>
<feGaussianBlur stdDeviation="1.75144"/>
<feComposite in2="hardAlpha" operator="out"/>
<feColorMatrix type="matrix" values="0 0 0 0 0 0 0 0 0 0 0 0 0 0 0 0 0 0 0.25 0"/>
<feBlend mode="normal" in2="BackgroundImageFix" result="effect1_dropShadow_1215_843"/>
<feBlend mode="normal" in="SourceGraphic" in2="effect1_dropShadow_1215_843" result="shape"/>
</filter>
<clipPath id="clip0_1215_843">
<rect width="1200" height="312" fill="white"/>
</clipPath>
</defs>
</svg>
