<svg width="141" height="101" viewBox="0 0 141 101" fill="none" xmlns="http://www.w3.org/2000/svg">
<path d="M94.8744 16.8307L96.4822 15.9834L96.1695 17.7672L97.4647 19.0158L95.6783 19.2834L94.8744 20.8888L94.0706 19.2834L92.2842 19.0158L93.5793 17.7672L93.3113 15.9834L94.8744 16.8307Z" fill="#29ABE2"/>
<path d="M87.2378 33.2417L89.0689 32.2606L88.7116 34.312L90.1853 35.6944L88.1757 36.0066L87.2378 37.835L86.3446 36.0066L84.335 35.6944L85.8087 34.312L85.4514 32.2606L87.2378 33.2417Z" fill="#29ABE2"/>
<path d="M60.2187 38.8161L62.4517 37.612L62.0051 40.1093L63.8361 41.8931L61.3352 42.2499L60.2187 44.5242L59.1022 42.2499L56.5566 41.8931L58.3877 40.1093L57.9411 37.612L60.2187 38.8161Z" fill="#29ABE2"/>
<path d="M96.6167 69.8096L98.4478 68.8286L98.0905 70.8799L99.5642 72.2624L97.5546 72.5745L96.6167 74.4029L95.7235 72.5745L93.7139 72.2624L95.1876 70.8799L94.8304 68.8286L96.6167 69.8096Z" fill="#29ABE2"/>
<path d="M119.169 52.15C118.857 52.15 118.544 52.1054 118.231 52.1054C112.113 52.1054 106.218 54.6027 101.975 59.0176C98.09 57.2784 93.8027 56.4311 89.5601 56.5649C86.1213 56.6987 82.7272 57.4122 79.601 58.7947C76.7428 56.4757 73.2594 55.0041 69.642 54.5135C68.5702 54.5135 67.4537 54.4244 66.3819 54.3352C62.8091 54.4244 59.3257 55.45 56.2442 57.323C55.2617 56.8325 54.2345 56.3865 53.2074 56.0298C50.1705 54.9149 46.9104 54.3352 43.6503 54.3352C39.2737 54.3352 34.9417 55.3608 31.0563 57.323C27.8409 55.3608 24.1788 54.3352 20.4274 54.3352C9.21793 54.3352 0.107422 63.4326 0.107422 74.6259C0.107422 74.7151 0.107422 74.7597 0.107422 74.8489H1.8938C1.8938 74.7597 1.8938 74.7151 1.8938 74.6259C1.8938 64.4137 10.2004 56.119 20.4274 56.119C24.0448 56.119 27.5283 57.1447 30.5204 59.1068L30.967 59.3744L31.4136 59.1068C35.165 57.1447 39.363 56.0744 43.6503 56.0744C47.9376 56.0744 52.1356 57.1001 55.8869 59.1068L56.3335 59.3744L56.4228 59.3298L56.7801 59.1068C59.7723 57.1447 63.3004 56.119 66.8731 56.119C71.2497 56.119 75.537 57.6798 78.8418 60.5339L79.2884 60.8906L79.8243 60.6677C82.9058 59.2852 86.2106 58.4825 89.6494 58.3933C93.892 58.2595 98.0007 59.1068 101.841 60.9352L102.422 61.2028L102.869 60.7123C106.709 56.4757 112.113 54.023 117.829 53.9338C117.963 53.9338 118.142 53.9338 118.276 53.9338C129.709 53.9338 139.043 63.2542 139.043 74.6705C139.043 74.7597 139.043 74.8043 139.043 74.8935H140.829C140.829 74.8043 140.829 74.7597 140.829 74.6705C140.784 62.4961 131.183 52.596 119.169 52.15Z" fill="#29ABE2"/>
<path d="M89.5597 56.5649C93.8023 56.4311 98.0896 57.2339 101.975 59.0177C106.218 54.6027 112.113 52.1054 118.231 52.1054C118.544 52.1054 118.856 52.1054 119.169 52.15C129.039 38.4147 128.86 20.0861 117.338 7.10895C114.882 4.34405 112.113 2.0251 109.076 0.107513C116.355 15.2253 111.979 33.9106 97.2411 45.3716C89.1131 51.6595 79.288 54.6919 69.6416 54.5135C73.259 55.0041 76.6978 56.4757 79.6006 58.7947C82.7715 57.4568 86.1209 56.6987 89.5597 56.5649Z" fill="#29ABE2"/>
<path d="M66.3821 54.3352C59.9065 53.7554 53.6542 51.704 48.1611 48.3148C49.4563 51.0351 51.1533 53.6216 53.2076 56.0298C54.2348 56.3865 55.262 56.8325 56.2445 57.323C59.2813 55.45 62.7647 54.4243 66.3821 54.3352Z" fill="#29ABE2"/>
<path d="M66.8731 54.3352C66.6945 54.3352 66.5158 54.3352 66.3818 54.3352C67.4537 54.4244 68.5701 54.5136 69.642 54.5136C68.7041 54.3798 67.8109 54.3352 66.8731 54.3352Z" fill="#29ABE2"/>
<path d="M46.6873 67.4015L48.2057 66.5988L47.8931 68.2488L49.0989 69.4083L47.4465 69.6759L46.6873 71.1475L45.9727 69.6759L44.3203 69.4083L45.5261 68.2488L45.2135 66.5988L46.6873 67.4015Z" fill="#29ABE2"/>
<path d="M69.9996 65.7069L71.652 64.815L71.3394 66.688L72.6792 67.9813L70.8035 68.2488L69.9996 69.9434L69.1511 68.2488L67.2754 67.9813L68.6598 66.688L68.3026 64.815L69.9996 65.7069Z" fill="#29ABE2"/>
<path d="M114.302 79.3976L115.686 78.6395L115.418 80.2003L116.535 81.2706L115.016 81.4936L114.302 82.876L113.632 81.4936L112.113 81.2706L113.185 80.2003L112.962 78.6395L114.302 79.3976Z" fill="#29ABE2"/>
<path d="M26.5905 71.2367L17.7927 86.1315L14.9345 84.4369L20.4722 75.1165L9.39669 81.1814L6.94043 79.7098L15.7383 64.815L18.5965 66.5096L12.8801 76.1422L24.2236 69.8543L26.5905 71.2367Z" fill="#29ABE2"/>
<path d="M31.1015 85.8193L37.2198 79.2192L39.2295 79.8435L38.5596 92.9991L35.5674 92.1072L36.1033 84.4368L30.2529 90.5018L29.0025 90.1004L27.618 81.8503L23.7773 88.5396L20.7852 87.6477L27.5734 76.3205L29.583 76.9449L31.1015 85.8193Z" fill="#29ABE2"/>
<path d="M43.7401 93.668L40.5693 93.1775L42.579 80.5571L53.6545 82.2963L51.6449 94.9167L48.474 94.4261L49.9925 84.8382L45.2586 84.0801L43.7401 93.668Z" fill="#29ABE2"/>
<path d="M67.7668 90.5018L57.4505 89.922C57.5398 90.8585 57.8971 91.5721 58.5223 92.1518C59.1475 92.7315 59.9514 93.0437 60.9339 93.0883C62.1397 93.1775 63.1669 92.7761 64.1047 92.018L66.7396 93.4451C66.0251 94.3815 65.1765 95.0059 64.194 95.4072C63.2115 95.8086 62.095 95.987 60.7999 95.8978C58.7903 95.764 57.1825 95.0505 56.0214 93.7126C54.8156 92.3748 54.2797 90.7693 54.4137 88.8518C54.503 86.8896 55.2622 85.3288 56.5573 84.1247C57.8971 82.9206 59.5048 82.3409 61.3805 82.4747C63.3902 82.6085 64.9979 83.322 66.2037 84.6598C67.4095 85.9977 67.9454 87.7369 67.8114 89.8774L67.7668 90.5018ZM64.6853 87.7815C64.5067 87.068 64.1494 86.4436 63.5241 85.9531C62.9436 85.4625 62.229 85.195 61.3805 85.1504C60.4873 85.1058 59.6835 85.3287 58.9689 85.7747C58.5223 86.0423 58.1204 86.5774 57.7184 87.3801L64.6853 87.7815Z" fill="#29ABE2"/>
<path d="M72.4553 83.0098L72.4999 84.4368C73.0358 83.8125 73.6611 83.3666 74.3309 83.0544C75.0008 82.7422 75.7154 82.5638 76.4746 82.5192C78.127 82.4301 79.6007 83.0098 80.8065 84.2139C82.0123 85.4179 82.6822 87.0234 82.7716 88.9855C82.8609 90.9031 82.325 92.5086 81.1638 93.8464C80.0027 95.1843 78.6182 95.8978 76.9658 95.9424C76.2066 95.987 75.5367 95.8532 74.9115 95.6302C74.2863 95.4072 73.6164 95.0059 72.9465 94.4261L73.2145 100.446L70.0437 100.58L69.3291 83.1436L72.4553 83.0098ZM75.9387 85.5071C74.9115 85.5517 74.1076 85.9085 73.4824 86.6666C72.8572 87.3801 72.5446 88.3166 72.5892 89.4315C72.6339 90.5464 72.9912 91.4829 73.7057 92.1518C74.4203 92.8207 75.2688 93.1329 76.2513 93.0883C77.2338 93.0437 78.0377 92.6423 78.6629 91.9288C79.2881 91.1707 79.6007 90.2788 79.5561 89.1639C79.5114 88.049 79.1541 87.2017 78.4396 86.4882C77.725 85.7747 76.9212 85.4625 75.9387 85.5071Z" fill="#29ABE2"/>
<path d="M87.1035 94.8721L85.4065 95.0951L83.6201 82.43L86.7016 81.9841L87.7734 89.4315L93.2219 81.0476L94.7403 80.8246L96.5267 93.4896L93.4452 93.9356L92.418 86.6666L87.1035 94.8721Z" fill="#29ABE2"/>
<path d="M105.548 78.1935L108.674 77.3462L111.979 89.6991L108.853 90.5464L108.496 89.2531C108.049 90.0112 107.558 90.5464 107.022 90.9923C106.486 91.3937 105.861 91.7058 105.146 91.8842C103.538 92.3302 102.02 92.0626 100.502 91.1261C98.9832 90.1896 98.0007 88.8072 97.5095 86.9788C97.0182 85.0612 97.1522 83.3666 97.9561 81.8503C98.76 80.3341 99.9658 79.353 101.573 78.9071C102.333 78.7287 103.047 78.6841 103.762 78.7733C104.476 78.8625 105.191 79.13 105.905 79.5314L105.548 78.1935ZM102.958 81.5828C102.02 81.8503 101.306 82.3855 100.859 83.2328C100.412 84.0801 100.323 85.0166 100.591 86.0869C100.859 87.1571 101.44 87.9599 102.243 88.4504C103.092 88.9855 103.94 89.1193 104.923 88.8518C105.905 88.5842 106.62 88.049 107.067 87.2017C107.513 86.3544 107.602 85.3733 107.335 84.3031C107.067 83.2328 106.486 82.4301 105.682 81.9395C104.834 81.449 103.94 81.3152 102.958 81.5828Z" fill="#29ABE2"/>
<path d="M131.629 79.9774L120.911 71.6381L123.412 85.0166L120.42 86.845L117.07 68.6056L119.929 66.8664L134.666 78.1489L131.629 79.9774Z" fill="#29ABE2"/>
</svg>
