<!-- icon666.com - MILLIONS vector ICONS FREE --><svg id="Layer_1" enable-background="new 0 0 511.855 511.855" viewBox="0 0 511.855 511.855" xmlns="http://www.w3.org/2000/svg"><g><g><path d="m469.876 7.541c-43.028 0-77.908 34.881-77.908 77.908 0 8.358 1.331 16.403 3.768 23.95-3.218-.788-6.578-1.214-10.039-1.214-22.421 0-40.742 17.533-42.013 39.636-10.289-7.123-22.768-11.306-36.229-11.306-26.843 0-49.794 16.601-59.189 40.089v-37.357c0-37.156-30.121-67.277-67.277-67.277-10.386 0-20.22 2.357-29.003 6.56.403-2.126.622-4.317.622-6.56 0-19.366-15.699-35.065-35.065-35.065-11.363 0-21.458 5.409-27.866 13.789-12.272-10.54-28.217-16.925-45.663-16.925-13.404 0-25.929 3.76-36.579 10.284l.001 460.489h236.277 4.552 256.171v-488.935c-10.414-5.163-22.148-8.066-34.56-8.066z" fill="#e1f3ff"></path><path d="m7.434 319.89c10.414-5.163 22.148-8.066 34.56-8.066 43.028 0 77.908 34.881 77.908 77.908 0 8.358-1.331 16.403-3.768 23.95 3.218-.788 6.578-1.214 10.039-1.214 22.421 0 40.742 17.533 42.013 39.636 10.289-7.122 22.768-11.306 36.229-11.306 35.203 0 63.741 28.538 63.741 63.742h-260.72z" fill="#ccebff"></path><g><g><path d="m342.532 248.889 6.022-2.378c13.503-5.332 25.014-14.73 32.939-26.893h-122.567-128.547c7.925 12.163 19.436 21.561 32.939 26.893l6.022 2.378z" fill="#ffd500"></path></g><g><path d="m153.322 280.312h-145.886c5.095 17.953 18.699 32.221 36.348 38.125l113.734 38.041h196.836l113.734-38.041c17.649-5.903 31.253-20.172 36.348-38.125h-142.908z" fill="#fe75a7"></path></g><path d="m236.349 213.337 10.49-94.225h23.427l11.04 93.72-22.38 21.422z" fill="#ffd500"></path><g><path d="m366.999 321.571c0 61.699-49.834 71.4-111.308 71.4s-111.308-9.701-111.308-71.4 49.834-111.716 111.308-111.716 111.308 50.017 111.308 111.716z" fill="#fff1ab"></path><path d="m255.692 209.855c-6.828 0-13.511.62-20 1.802 51.928 9.457 91.307 55.068 91.307 109.914s-39.379 68.602-91.307 70.982c6.489.297 13.172.418 20 .418 61.474 0 111.307-9.701 111.307-71.4s-49.834-111.716-111.307-111.716z" fill="#ffea80"></path><g><path d="m328.793 296.695c-2.08-7.666-5.329-14.853-9.54-21.357-5.534-8.545-14.98-13.724-25.134-13.724h-76.853c-10.155 0-19.6 5.179-25.134 13.724-4.212 6.504-7.46 13.691-9.54 21.357-2.801 10.32 4.907 20.499 15.564 20.499h115.075c10.655 0 18.363-10.179 15.562-20.499z" fill="#5ed8f6"></path></g></g><g fill="#6b46cf"><ellipse cx="434.991" cy="338.945" rx="27.794" ry="27.896"></ellipse><ellipse cx="76.881" cy="338.945" rx="27.794" ry="27.896"></ellipse></g></g></g><g fill="#060606"><path d="m446.476 19.021c7.496-2.641 15.369-3.979 23.399-3.979 10.973 0 21.479 2.451 31.229 7.285 8.277 4.105 15.602-9.007 6.664-13.438-11.84-5.87-24.588-8.847-37.893-8.847-9.732 0-19.282 1.625-28.384 4.832-9.145 3.221-4.161 17.372 4.985 14.147z"></path><path d="m504.436 272.812h-140.335c-3.152-7.028-6.963-13.695-11.354-19.924 14.396-6.016 26.49-16.068 35.03-29.175 1.502-2.306 1.621-5.249.31-7.668s-3.842-3.926-6.594-3.926h-77.922c-.246 0-.489.014-.729.037-4.745-2.067-9.645-3.838-14.685-5.277l-6.658-56.52c7.979-4.156 16.861-6.343 25.955-6.343 11.484 0 22.536 3.448 31.961 9.973 4.425 3.062 11.405.378 11.756-5.736 1.051-18.262 16.216-32.567 34.525-32.567 2.77 0 5.547.336 8.256 1 6.726.294 9.699-2.902 8.921-9.589-2.26-6.999-3.405-14.281-3.405-21.646 0-17.386 6.389-34.08 17.989-47.007 2.957-10.782-.764-14.122-11.164-10.019-14.074 15.684-21.825 35.936-21.825 57.025 0 5.126.458 10.221 1.366 15.236-.046 0-.092 0-.138 0-22.293 0-41.336 14.797-47.493 35.299-9.545-4.583-19.998-6.969-30.749-6.969-9.622 0-19.059 1.938-27.804 5.646l-1.935-16.427c-.444-3.776-3.646-6.623-7.448-6.623h-19.787c-5.063-12.665-13.642-23.934-24.598-32.17-13.028-9.794-28.553-14.971-44.893-14.971-7.242 0-14.308 1.012-21.115 3.018-2.245-21.373-20.373-38.083-42.331-38.083-10.802 0-20.928 3.985-28.707 11.128-13.057-9.243-28.721-14.266-44.821-14.266-14.331 0-28.334 3.938-40.497 11.388-8.27 5.065-.433 17.855 7.836 12.791 9.803-6.005 21.097-9.179 32.661-9.179 14.947 0 29.428 5.368 40.775 15.115 3.94 2.738 7.555 2.361 10.845-1.133 5.27-6.892 13.255-10.845 21.908-10.845 17.138 0 30.224 16.096 27.074 32.73.192 7.065 3.728 9.785 10.606 8.16 8.077-3.865 16.746-5.825 25.766-5.825 26.476 0 49.454 16.995 57.18 42.289.163.535.398 1.025.662 1.492l-9.127 81.983c-7.313 1.644-14.372 3.966-21.111 6.898-.097-.004-.193-.015-.291-.015h-77.922c-2.752 0-5.282 1.507-6.594 3.926s-1.192 5.362.31 7.668c8.465 12.992 20.421 22.984 34.651 29.017-4.438 6.274-8.285 12.995-11.463 20.082h-139.848c-5.573.788-7.978 3.971-7.215 9.547 2.836 9.992 8.001 18.96 14.882 26.304-3.757 1.246-7.434 2.739-11.001 4.508-8.938 4.431-1.616 17.541 6.662 13.439 6.058-3.004 12.485-5.096 19.135-6.246 4.478 2.482 9.142 4.487 13.993 6.017-1.485 3.907-2.305 8.141-2.305 12.564 0 19.518 15.833 35.396 35.294 35.396 11.828 0 22.308-5.872 28.716-14.854 7.69 16.111 8.871 34.951 3.4 51.892-.778 6.687 2.195 9.883 8.921 9.589 20.303-4.97 41.576 10.611 42.782 31.567 1.679 6.502 5.598 8.413 11.756 5.736 9.425-6.524 20.476-9.972 31.96-9.972 31.012 0 56.241 25.23 56.241 56.242 0 9.697 15 9.697 15 0 0-39.283-31.959-71.242-71.241-71.242-10.751 0-21.203 2.386-30.748 6.968-6.157-20.502-25.2-35.299-47.494-35.299-.046 0-.092 0-.138 0 .908-5.015 1.366-10.109 1.366-15.236 0-13.554-3.137-26.629-9.139-38.477l27.058 9.05c7.61 14.37 20.405 24.685 38.573 31.176 9.131 3.263 14.179-10.863 5.047-14.126-25.281-9.031-37.056-26.757-37.056-55.785 0-56.454 47.285-104.216 103.808-104.216 57.239 0 103.808 46.751 103.808 104.216 0 53.21-39.72 63.9-103.808 63.9-9.645 0-18.035-.242-25.649-.741-9.679-.645-10.656 14.334-.98 14.968 7.944.52 16.655.773 26.63.773 25.852 0 58.543-1.519 82.078-13.363 12.504-6.293 21.837-15.169 27.97-26.53l35.346-11.822c4.253 14.759 17.837 25.587 33.905 25.587 19.461 0 35.294-15.879 35.294-35.396 0-4.424-.821-8.657-2.305-12.564 20.64-6.72 37.663-22.853 43.67-44.022.762-5.576-1.643-8.758-7.216-9.546zm-427.555 86.529c-11.19 0-20.294-9.15-20.294-20.396s9.104-20.396 20.294-20.396 20.295 9.15 20.295 20.396-9.105 20.396-20.295 20.396zm34.831-26.093c-2.726-16.818-17.304-29.699-34.832-29.699-9.472 0-18.077 3.769-24.423 9.88l-6.295-2.105c-3.794-1.269-7.37-2.985-10.673-5.082-.049-.032-.096-.066-.145-.097-7.095-4.542-12.914-10.853-16.867-18.333h123.266c-3.156 10.708-4.859 22.037-4.859 33.759 0 7.491.685 14.408 2.044 20.78zm56.917-92.703-2.556-1.01c-7.366-2.908-14.011-7.114-19.688-12.417h36.905c-5.252 4.063-10.156 8.556-14.661 13.427zm76.435-37.708 8.486-76.225h10.049l9.066 76.964c-5.545-.799-11.21-1.222-16.972-1.222-3.583.001-7.127.17-10.629.483zm83.03 24.281h37.393c-5.677 5.303-12.321 9.509-19.688 12.417l-2.914 1.151c-4.54-4.925-9.488-9.465-14.791-13.568zm106.898 132.223c-11.19 0-20.295-9.15-20.295-20.396s9.104-20.396 20.295-20.396 20.294 9.15 20.294 20.396-9.104 20.396-20.294 20.396zm30.718-48.018-6.295 2.105c-6.346-6.112-14.951-9.88-24.423-9.88-17.528 0-32.106 12.882-34.832 29.699l-27.821 9.305c1.434-6.456 2.161-13.45 2.161-20.983 0-11.722-1.703-23.05-4.859-33.759h123.755c-5.816 11.006-15.663 19.492-27.686 23.513z"></path><path d="m331.976 315.422c4.536-5.931 6.014-13.473 4.055-20.691-2.257-8.316-5.784-16.212-10.483-23.469-6.953-10.737-18.702-17.147-31.429-17.147h-76.854c-12.727 0-24.477 6.41-31.431 17.148-4.699 7.259-8.227 15.155-10.482 23.468-1.959 7.219-.48 14.76 4.056 20.691 4.506 5.893 11.339 9.272 18.746 9.272h115.075c7.407 0 14.24-3.379 18.747-9.272zm-140.654-9.112c-1.674-2.189-2.219-4.978-1.493-7.65 1.849-6.814 4.742-13.29 8.597-19.244 4.178-6.45 11.221-10.301 18.84-10.301h76.854c7.619 0 14.661 3.851 18.839 10.301 3.854 5.953 6.747 12.427 8.597 19.244.726 2.673.181 5.461-1.493 7.65-1.645 2.151-4.135 3.384-6.832 3.384h-115.077c-2.696 0-5.187-1.233-6.832-3.384z"></path><path d="m434.991 331.445c-9.652 0-9.668 15 0 15 9.652 0 9.668-15 0-15z"></path><path d="m76.881 331.445c-9.652 0-9.668 15 0 15 9.652 0 9.668-15 0-15z"></path></g></g></svg>